# xmcd
#
# Track frame offsets:
#	150
#	22297
#	39177
#	59730
#	76842
#	92940
#	114392
#	139602
#	158427
#	177040
#	200785
#	222167
#	242212
#
# Disc length: 3570 seconds
#
# Revision: 1
# Processed by: cddbd v1.5PL3 Copyright (c) Steve Scherf et al.
# Submitted via: audiograbber 1.82.02
#
DISCID=b00df00d
DTITLE=Curtis Salgado - Strong Suspicion
DYEAR=2004
DGENRE=Blues
TTITLE0=Give Me Patience
TTITLE1=I'll Be Back
TTITLE2=Born All Over
TTITLE3=Who Is He (And What Is He To You)
TTITLE4=Can't Stop Lovin'
TTITLE5=Strong Suspicion
TTITLE6=Inside My Heart
TTITLE7=Money Must Think I'm Dead
TTITLE8=Love Her Just Because
TTITLE9=Help Me Through The Day
TTITLE10=At Least I Didn't Do That
TTITLE11=The Sum Of Something
TTITLE12=Don't Wait Until Tomorrow (1000 MPH)
EXTD=
EXTT0=
EXTT1=
EXTT2=
EXTT3=
EXTT4=
EXTT5=
EXTT6=
EXTT7=
EXTT8=
EXTT9=
EXTT10=
EXTT11=
EXTT12=
PLAYORDER=
